<mxfile host="app.diagrams.net" agent="Mozilla/5.0 (Windows NT 10.0; Win64; x64) AppleWebKit/537.36 (KHTML, like Gecko) Chrome/134.0.0.0 Safari/537.36" version="26.2.6">
  <diagram name="Page-1" id="uc3z3hjPvJwWiDv4oa0w">
    <mxGraphModel dx="1013" dy="1708" grid="1" gridSize="10" guides="1" tooltips="1" connect="1" arrows="1" fold="1" page="1" pageScale="1" pageWidth="850" pageHeight="1100" math="0" shadow="0">
      <root>
        <mxCell id="0" />
        <mxCell id="1" parent="0" />
        <mxCell id="EZH3ous1dzxNXky2mQrI-5" style="edgeStyle=orthogonalEdgeStyle;rounded=0;orthogonalLoop=1;jettySize=auto;html=1;exitX=0.5;exitY=0;exitDx=0;exitDy=0;entryX=0.5;entryY=1;entryDx=0;entryDy=0;" edge="1" parent="1" source="EZH3ous1dzxNXky2mQrI-1" target="EZH3ous1dzxNXky2mQrI-2">
          <mxGeometry relative="1" as="geometry" />
        </mxCell>
        <mxCell id="EZH3ous1dzxNXky2mQrI-1" value="矩阵乘法" style="rounded=1;whiteSpace=wrap;html=1;fontSize=15;fillColor=#e1d5e7;strokeColor=#9673a6;fontFamily=SimSun;" vertex="1" parent="1">
          <mxGeometry x="150" y="240" width="120" height="40" as="geometry" />
        </mxCell>
        <mxCell id="EZH3ous1dzxNXky2mQrI-6" style="edgeStyle=orthogonalEdgeStyle;rounded=0;orthogonalLoop=1;jettySize=auto;html=1;exitX=0.5;exitY=0;exitDx=0;exitDy=0;entryX=0.5;entryY=1;entryDx=0;entryDy=0;" edge="1" parent="1" source="EZH3ous1dzxNXky2mQrI-2" target="EZH3ous1dzxNXky2mQrI-3">
          <mxGeometry relative="1" as="geometry" />
        </mxCell>
        <mxCell id="EZH3ous1dzxNXky2mQrI-2" value="缩放" style="rounded=1;whiteSpace=wrap;html=1;fontSize=15;fillColor=#fff2cc;strokeColor=#d6b656;fontFamily=SimSun;" vertex="1" parent="1">
          <mxGeometry x="165" y="180" width="90" height="40" as="geometry" />
        </mxCell>
        <mxCell id="EZH3ous1dzxNXky2mQrI-7" style="edgeStyle=orthogonalEdgeStyle;rounded=0;orthogonalLoop=1;jettySize=auto;html=1;exitX=0.5;exitY=0;exitDx=0;exitDy=0;entryX=0.5;entryY=1;entryDx=0;entryDy=0;" edge="1" parent="1" source="EZH3ous1dzxNXky2mQrI-3" target="EZH3ous1dzxNXky2mQrI-4">
          <mxGeometry relative="1" as="geometry" />
        </mxCell>
        <mxCell id="EZH3ous1dzxNXky2mQrI-3" value="掩码（可选）" style="rounded=1;whiteSpace=wrap;html=1;fontSize=15;fillColor=#f8cecc;strokeColor=#b85450;fontFamily=SimSun;" vertex="1" parent="1">
          <mxGeometry x="150" y="120" width="120" height="40" as="geometry" />
        </mxCell>
        <mxCell id="EZH3ous1dzxNXky2mQrI-4" value="Softmax" style="rounded=1;whiteSpace=wrap;html=1;fontSize=15;fontFamily=Times New Roman;fillColor=#d5e8d4;strokeColor=#82b366;" vertex="1" parent="1">
          <mxGeometry x="155" y="60" width="110" height="40" as="geometry" />
        </mxCell>
        <mxCell id="EZH3ous1dzxNXky2mQrI-10" style="edgeStyle=orthogonalEdgeStyle;rounded=0;orthogonalLoop=1;jettySize=auto;html=1;exitX=0.5;exitY=0;exitDx=0;exitDy=0;" edge="1" parent="1" source="EZH3ous1dzxNXky2mQrI-8">
          <mxGeometry relative="1" as="geometry">
            <mxPoint x="257.8333333333335" y="-40" as="targetPoint" />
          </mxGeometry>
        </mxCell>
        <mxCell id="EZH3ous1dzxNXky2mQrI-8" value="矩阵乘法" style="rounded=1;whiteSpace=wrap;html=1;fontSize=15;fillColor=#e1d5e7;strokeColor=#9673a6;fontFamily=SimSun;" vertex="1" parent="1">
          <mxGeometry x="198" width="120" height="40" as="geometry" />
        </mxCell>
        <mxCell id="EZH3ous1dzxNXky2mQrI-9" style="edgeStyle=orthogonalEdgeStyle;rounded=0;orthogonalLoop=1;jettySize=auto;html=1;exitX=0.5;exitY=0;exitDx=0;exitDy=0;entryX=0.091;entryY=0.974;entryDx=0;entryDy=0;entryPerimeter=0;" edge="1" parent="1" source="EZH3ous1dzxNXky2mQrI-4" target="EZH3ous1dzxNXky2mQrI-8">
          <mxGeometry relative="1" as="geometry" />
        </mxCell>
        <mxCell id="EZH3ous1dzxNXky2mQrI-12" style="edgeStyle=orthogonalEdgeStyle;rounded=0;orthogonalLoop=1;jettySize=auto;html=1;exitX=0.5;exitY=0;exitDx=0;exitDy=0;" edge="1" parent="1" source="EZH3ous1dzxNXky2mQrI-11" target="EZH3ous1dzxNXky2mQrI-1">
          <mxGeometry relative="1" as="geometry">
            <Array as="points">
              <mxPoint x="168" y="280" />
              <mxPoint x="168" y="280" />
            </Array>
          </mxGeometry>
        </mxCell>
        <mxCell id="EZH3ous1dzxNXky2mQrI-11" value="Q" style="text;html=1;align=center;verticalAlign=middle;whiteSpace=wrap;rounded=0;fontFamily=Times New Roman;fontSize=15;" vertex="1" parent="1">
          <mxGeometry x="138" y="310" width="60" height="30" as="geometry" />
        </mxCell>
        <mxCell id="EZH3ous1dzxNXky2mQrI-14" style="edgeStyle=orthogonalEdgeStyle;rounded=0;orthogonalLoop=1;jettySize=auto;html=1;exitX=0.5;exitY=0;exitDx=0;exitDy=0;entryX=0.75;entryY=1;entryDx=0;entryDy=0;" edge="1" parent="1" source="EZH3ous1dzxNXky2mQrI-13" target="EZH3ous1dzxNXky2mQrI-1">
          <mxGeometry relative="1" as="geometry" />
        </mxCell>
        <mxCell id="EZH3ous1dzxNXky2mQrI-13" value="K" style="text;html=1;align=center;verticalAlign=middle;whiteSpace=wrap;rounded=0;fontFamily=Times New Roman;fontSize=15;" vertex="1" parent="1">
          <mxGeometry x="210" y="310" width="60" height="30" as="geometry" />
        </mxCell>
        <mxCell id="EZH3ous1dzxNXky2mQrI-15" value="V" style="text;html=1;align=center;verticalAlign=middle;whiteSpace=wrap;rounded=0;fontFamily=Times New Roman;fontSize=15;" vertex="1" parent="1">
          <mxGeometry x="280" y="310" width="60" height="30" as="geometry" />
        </mxCell>
        <mxCell id="EZH3ous1dzxNXky2mQrI-16" style="rounded=0;orthogonalLoop=1;jettySize=auto;html=1;exitX=0.5;exitY=0;exitDx=0;exitDy=0;entryX=0.922;entryY=0.918;entryDx=0;entryDy=0;entryPerimeter=0;" edge="1" parent="1">
          <mxGeometry relative="1" as="geometry">
            <mxPoint x="310" y="313" as="sourcePoint" />
            <mxPoint x="308.6400000000001" y="39.7199999999998" as="targetPoint" />
          </mxGeometry>
        </mxCell>
      </root>
    </mxGraphModel>
  </diagram>
</mxfile>
